<svg width="180" height="180" viewBox="0 0 180 180" fill="none" xmlns="http://www.w3.org/2000/svg">
<g clip-path="url(#clip0_25802_91)">
<rect x="2" y="2" width="176" height="176" rx="88" fill="white" stroke="#E66767" stroke-width="4"/>
<path d="M126.475 137.305L121.269 96.8165C121.259 96.74 121.319 96.6723 121.396 96.6723V96.6723C122.93 96.6723 124.174 95.3826 124.174 93.7917V35.2197C124.174 34.2075 123.664 33.2734 122.83 32.7524C121.996 32.2308 120.96 32.2 120.1 32.6712C109.267 38.598 102.486 50.2516 102.486 62.9555V87.6523C102.486 92.6332 106.381 96.672 111.185 96.672V96.672C111.534 96.672 111.804 96.9789 111.76 97.3253L106.619 137.305C106.239 140.27 107.111 143.267 109.01 145.518C110.913 147.769 113.661 149.062 116.547 149.062C119.433 149.062 122.181 147.769 124.084 145.518C125.984 143.267 126.855 140.271 126.475 137.305Z" fill="#E66767"/>
<path d="M82.9428 30.9375C80.8351 30.9375 79.1295 32.7061 79.1295 34.8912V55.0711C79.1295 56.1241 78.2759 56.9777 77.2229 56.9777V56.9777C76.1699 56.9777 75.3162 56.1241 75.3162 55.0711V34.8912C75.3162 32.7061 73.6106 30.9375 71.5029 30.9375C69.3953 30.9375 67.6899 32.7061 67.6899 34.8912V55.0711C67.6899 56.1241 66.8362 56.9777 65.7832 56.9777V56.9777C64.7302 56.9777 63.8766 56.1241 63.8766 55.0711V34.8912C63.8763 32.7061 62.1707 30.9375 60.0633 30.9375C57.9554 30.9375 56.25 32.7061 56.25 34.8912V70.5775C56.25 76.4428 60.8339 81.1959 66.4905 81.1959V81.1959C66.942 81.1959 67.2938 81.5874 67.2457 82.0363L61.3257 137.274C61.0055 140.274 61.9325 143.275 63.8726 145.526C65.8167 147.777 68.591 149.062 71.5032 149.062C74.4154 149.062 77.1894 147.777 79.1337 145.526C81.074 143.275 82.0011 140.274 81.6806 137.274L75.7605 82.0367C75.7123 81.5877 76.0642 81.1961 76.5158 81.1961V81.1961C82.1721 81.1961 86.7564 76.443 86.7564 70.5777V34.8912C86.7561 32.7061 85.0505 30.9375 82.9428 30.9375Z" fill="#E66767"/>
</g>
<defs>
<clipPath id="clip0_25802_91">
<rect width="180" height="180" fill="white"/>
</clipPath>
</defs>
</svg>
